<svg width="22" height="22" viewBox="0 0 22 22" fill="none" xmlns="http://www.w3.org/2000/svg">
<path d="M7.88333 12.9434L12.0908 17.1509C12.2626 17.3217 12.4949 17.4175 12.7371 17.4175C12.9793 17.4175 13.2116 17.3217 13.3833 17.1509C13.4693 17.0657 13.5374 16.9643 13.584 16.8526C13.6305 16.7409 13.6545 16.6211 13.6545 16.5001C13.6545 16.3791 13.6305 16.2593 13.584 16.1476C13.5374 16.0359 13.4693 15.9345 13.3833 15.8493L9.16667 11.6509C9.08075 11.5657 9.01256 11.4643 8.96602 11.3526C8.91948 11.2409 8.89552 11.1211 8.89552 11.0001C8.89552 10.8791 8.91948 10.7593 8.96602 10.6476C9.01256 10.5359 9.08075 10.4345 9.16667 10.3493L13.3833 6.15092C13.5559 5.97952 13.6534 5.74658 13.6543 5.50333C13.6551 5.26008 13.5593 5.02645 13.3879 4.85384C13.2165 4.68123 12.9836 4.58377 12.7403 4.58291C12.4971 4.58205 12.2634 4.67786 12.0908 4.84925L7.88333 9.05675C7.36835 9.57238 7.07909 10.2713 7.07909 11.0001C7.07909 11.7288 7.36835 12.4278 7.88333 12.9434Z" fill="black"/>
</svg>
