<svg width="22" height="22" viewBox="0 0 22 22" fill="none" xmlns="http://www.w3.org/2000/svg">
<path d="M14.1183 9.05756L9.91082 4.85006C9.73907 4.67933 9.50674 4.5835 9.26457 4.5835C9.0224 4.5835 8.79007 4.67933 8.61832 4.85006C8.5324 4.93527 8.4642 5.03666 8.41767 5.14836C8.37113 5.26006 8.34717 5.37988 8.34717 5.50089C8.34717 5.6219 8.37113 5.74171 8.41767 5.85342C8.4642 5.96512 8.5324 6.06651 8.61832 6.15172L12.835 10.3501C12.9209 10.4353 12.9891 10.5367 13.0356 10.6484C13.0822 10.7601 13.1061 10.8799 13.1061 11.0009C13.1061 11.1219 13.0822 11.2417 13.0356 11.3534C12.9891 11.4651 12.9209 11.5665 12.835 11.6517L8.61832 15.8501C8.4457 16.0215 8.34825 16.2544 8.34739 16.4976C8.34653 16.7409 8.44234 16.9745 8.61373 17.1471C8.78513 17.3198 9.01808 17.4172 9.26133 17.4181C9.50458 17.4189 9.73821 17.3231 9.91082 17.1517L14.1183 12.9442C14.6333 12.4286 14.9226 11.7296 14.9226 11.0009C14.9226 10.2721 14.6333 9.57318 14.1183 9.05756Z" fill="black"/>
</svg>
