<svg width="20" height="20" viewBox="0 0 20 20" fill="none" xmlns="http://www.w3.org/2000/svg">
<path d="M11.8804 12.2659L15.7232 8.45869C15.8791 8.30327 15.9672 8.09247 15.9682 7.87232C15.9693 7.65217 15.8831 7.44055 15.7286 7.2837C15.6515 7.20523 15.5597 7.14281 15.4583 7.10003C15.3569 7.05725 15.2481 7.03496 15.1381 7.03445C15.0281 7.03394 14.9191 7.05521 14.8173 7.09705C14.7156 7.13888 14.6231 7.20045 14.5453 7.27819L10.7109 11.0937C10.633 11.1715 10.5406 11.233 10.4388 11.2749C10.3371 11.3167 10.2281 11.338 10.1181 11.3375C10.008 11.337 9.89923 11.3147 9.79788 11.2719C9.69652 11.2291 9.60465 11.1667 9.52754 11.0882L5.72875 7.23719C5.57366 7.07954 5.36231 6.98996 5.14118 6.98815C4.92005 6.98634 4.70725 7.07245 4.54961 7.22754C4.39197 7.38262 4.30239 7.59397 4.30058 7.8151C4.29877 8.03623 4.38488 8.24903 4.53996 8.40667L8.34713 12.2494C8.8137 12.7198 9.44788 12.9857 10.1104 12.9888C10.7729 12.9918 11.4095 12.7318 11.8804 12.2659Z" fill="#222831"/>
</svg>
