<svg width="41" height="41" viewBox="0 0 41 41" fill="none" xmlns="http://www.w3.org/2000/svg">
<path d="M23.5997 25.7758L31.2852 18.1615C31.5971 17.8507 31.7733 17.4291 31.7753 16.9888C31.7774 16.5485 31.6051 16.1252 31.2961 15.8115C31.1419 15.6546 30.9582 15.5298 30.7555 15.4442C30.5528 15.3586 30.3351 15.3141 30.1151 15.313C29.8951 15.312 29.6771 15.3546 29.4736 15.4382C29.2701 15.5219 29.0852 15.645 28.9295 15.8005L21.2606 23.4316C21.1049 23.5871 20.92 23.7102 20.7165 23.7939C20.513 23.8776 20.295 23.9201 20.075 23.9191C19.855 23.9181 19.6373 23.8735 19.4346 23.7879C19.2319 23.7024 19.0482 23.5775 18.8939 23.4206L11.2964 15.7185C10.9862 15.4032 10.5635 15.2241 10.1212 15.2204C9.67896 15.2168 9.25338 15.389 8.93809 15.6992C8.6228 16.0094 8.44364 16.4321 8.44002 16.8743C8.43641 17.3166 8.60862 17.7422 8.91879 18.0575L16.5331 25.743C17.4663 26.6837 18.7346 27.2155 20.0596 27.2217C21.3846 27.2278 22.6579 26.7078 23.5997 25.7758Z" fill="#222831"/>
</svg>
