<svg width="24" height="24" viewBox="0 0 24 24" fill="none" xmlns="http://www.w3.org/2000/svg">
<mask id="mask0_43_161" style="mask-type:alpha" maskUnits="userSpaceOnUse" x="0" y="0" width="24" height="24">
<rect width="24" height="24" fill="#D9D9D9"/>
</mask>
<g mask="url(#mask0_43_161)">
<path d="M12.0001 13.8334L7.20007 18.6334C6.94451 18.889 6.63895 19.0167 6.2834 19.0167C5.92785 19.0167 5.6223 18.889 5.36675 18.6334C5.11118 18.3778 4.9834 18.0723 4.9834 17.7167C4.9834 17.3612 5.11118 17.0556 5.36675 16.8001L10.1667 12.0001L5.36675 7.20007C5.11118 6.94451 4.9834 6.63895 4.9834 6.2834C4.9834 5.92785 5.11118 5.6223 5.36675 5.36675C5.6223 5.11118 5.92785 4.9834 6.2834 4.9834C6.63895 4.9834 6.94451 5.11118 7.20007 5.36675L12.0001 10.1667L16.8001 5.36675C17.0556 5.11118 17.3612 4.9834 17.7167 4.9834C18.0723 4.9834 18.3778 5.11118 18.6334 5.36675C18.889 5.6223 19.0167 5.92785 19.0167 6.2834C19.0167 6.63895 18.889 6.94451 18.6334 7.20007L13.8334 12.0001L18.6334 16.8001C18.889 17.0556 19.0167 17.3612 19.0167 17.7167C19.0167 18.0723 18.889 18.3778 18.6334 18.6334C18.3778 18.889 18.0723 19.0167 17.7167 19.0167C17.3612 19.0167 17.0556 18.889 16.8001 18.6334L12.0001 13.8334Z" fill="#1C1B1F"/>
</g>
</svg>
