<svg width="104" height="104" viewBox="0 0 104 104" fill="none" xmlns="http://www.w3.org/2000/svg">
<path d="M48.5797 3.25558C50.5469 1.56608 53.4531 1.56608 55.4203 3.25558L59.937 7.13465C61.6847 8.6356 64.0418 9.21655 66.2868 8.69972L72.0889 7.36401C74.6159 6.78226 77.1891 8.13279 78.1459 10.543L80.3426 16.0768C81.1926 18.218 83.0096 19.8278 85.2377 20.4135L90.9959 21.9271C93.5039 22.5864 95.1547 24.978 94.8818 27.5568L94.2552 33.4776C94.0127 35.7685 94.8736 38.0383 96.5742 39.5924L100.969 43.6086C102.884 45.3579 103.234 48.2428 101.794 50.3993L98.4876 55.3507C97.2083 57.2666 96.9157 59.6765 97.6994 61.8428L99.7247 67.4416C100.607 69.8801 99.5763 72.5974 97.299 73.8376L92.0703 76.6853C90.0472 77.7872 88.6682 79.7851 88.3553 82.0675L87.5468 87.9662C87.1946 90.5353 85.0194 92.4624 82.4265 92.5023L76.4734 92.5939C74.1699 92.6294 72.0204 93.7575 70.6827 95.6331L67.2255 100.48C65.7198 102.592 62.8981 103.287 60.5837 102.117L55.2699 99.4321C53.2138 98.393 50.7862 98.393 48.7301 99.4321L43.4163 102.117C41.1019 103.287 38.2802 102.592 36.7745 100.48L33.3173 95.6331C31.9796 93.7575 29.8301 92.6294 27.5266 92.5939L21.5735 92.5023C18.9806 92.4624 16.8054 90.5353 16.4532 87.9662L15.6447 82.0675C15.3318 79.7851 13.9528 77.7872 11.9297 76.6853L6.70101 73.8376C4.42371 72.5974 3.39319 69.8801 4.27531 67.4416L6.30064 61.8428C7.08431 59.6765 6.7917 57.2666 5.51235 55.3507L2.206 50.3993C0.765943 48.2428 1.11624 45.3579 3.03054 43.6086L7.42576 39.5924C9.12643 38.0383 9.98726 35.7685 9.7448 33.4776L9.1182 27.5568C8.84528 24.978 10.4961 22.5864 13.0041 21.9271L18.7623 20.4135C20.9904 19.8278 22.8074 18.218 23.6574 16.0768L25.8541 10.543C26.8109 8.13279 29.3841 6.78226 31.9111 7.36401L37.7132 8.69972C39.9582 9.21655 42.3153 8.63559 44.063 7.13464L48.5797 3.25558Z" fill="#DD7DDF" stroke="black" stroke-width="2"/>
</svg>
