<svg width="300" height="37" viewBox="0 0 300 37" fill="none" xmlns="http://www.w3.org/2000/svg">
<mask id="path-1-outside-1_27_17" maskUnits="userSpaceOnUse" x="-2" y="-1" width="303" height="39" fill="black">
<rect fill="white" x="-2" y="-1" width="303" height="39"/>
<path d="M15.312 36L0.048 1.008H9.264L19.2 25.632L20.544 29.328H20.88L22.224 25.68L32.208 1.008H41.424L26.112 36H15.312ZM44.3164 36V1.008H52.6684V36H44.3164ZM58.332 36V1.008H68.508L85.98 25.152H86.316L86.076 14.544V1.008H94.38V36H84.348L66.876 12.048H66.492L66.78 22.272V36H58.332ZM100.051 36V1.008H108.403V36H100.051ZM139.501 36.432C127.885 36.432 122.605 31.68 122.509 24.864H131.245C131.341 28.512 134.269 30.672 139.789 30.672C144.733 30.672 147.277 29.04 147.277 26.304C147.277 22.8 144.685 22.416 138.493 21.648C128.605 20.496 123.421 18.24 123.421 11.328C123.421 4.464 129.421 0.575998 139.213 0.575998C148.333 0.575998 154.093 4.416 154.621 11.136H146.173C145.789 7.776 143.053 6.288 138.877 6.288C134.509 6.288 132.013 7.872 132.013 10.416C132.013 13.44 134.173 13.92 140.701 14.688C150.877 15.888 155.917 17.904 155.917 25.632C155.917 32.4 150.109 36.432 139.501 36.432ZM168.852 36V7.728H157.236V1.008H188.964V7.728H177.156V36H168.852ZM208.714 36.432C196.234 36.432 188.89 29.328 188.89 18.48C188.89 7.632 196.282 0.575998 208.714 0.575998C221.05 0.575998 228.394 7.632 228.394 18.48C228.394 29.328 221.002 36.432 208.714 36.432ZM208.714 29.808C215.53 29.808 219.946 25.872 219.946 18.48C219.946 11.088 215.482 7.2 208.714 7.2C201.754 7.2 197.386 11.088 197.386 18.48C197.386 25.872 201.802 29.808 208.714 29.808ZM232.52 36V1.008H253.16C260.6 1.008 266.312 3.744 266.312 11.328C266.312 15.504 264.008 18.864 259.928 19.872V20.208C263.72 20.88 265.448 23.04 265.448 27.072V31.872C265.448 33.216 265.448 34.608 266.072 36H257.672C257.24 35.136 257.096 33.792 257.096 31.872V28.272C257.096 25.248 255.992 23.52 251.768 23.52H240.872V36H232.52ZM240.872 17.472H251.48C256.28 17.472 257.864 15.36 257.864 12.24C257.864 8.592 255.272 7.344 251.48 7.344H240.872V17.472ZM270.254 36V1.008H299.87V7.632H278.606V15.216H297.518V21.408H278.606V29.376H299.966V36H270.254Z"/>
</mask>
<path d="M15.312 36L0.048 1.008H9.264L19.2 25.632L20.544 29.328H20.88L22.224 25.68L32.208 1.008H41.424L26.112 36H15.312ZM44.3164 36V1.008H52.6684V36H44.3164ZM58.332 36V1.008H68.508L85.98 25.152H86.316L86.076 14.544V1.008H94.38V36H84.348L66.876 12.048H66.492L66.78 22.272V36H58.332ZM100.051 36V1.008H108.403V36H100.051ZM139.501 36.432C127.885 36.432 122.605 31.68 122.509 24.864H131.245C131.341 28.512 134.269 30.672 139.789 30.672C144.733 30.672 147.277 29.04 147.277 26.304C147.277 22.8 144.685 22.416 138.493 21.648C128.605 20.496 123.421 18.24 123.421 11.328C123.421 4.464 129.421 0.575998 139.213 0.575998C148.333 0.575998 154.093 4.416 154.621 11.136H146.173C145.789 7.776 143.053 6.288 138.877 6.288C134.509 6.288 132.013 7.872 132.013 10.416C132.013 13.44 134.173 13.92 140.701 14.688C150.877 15.888 155.917 17.904 155.917 25.632C155.917 32.4 150.109 36.432 139.501 36.432ZM168.852 36V7.728H157.236V1.008H188.964V7.728H177.156V36H168.852ZM208.714 36.432C196.234 36.432 188.89 29.328 188.89 18.48C188.89 7.632 196.282 0.575998 208.714 0.575998C221.05 0.575998 228.394 7.632 228.394 18.48C228.394 29.328 221.002 36.432 208.714 36.432ZM208.714 29.808C215.53 29.808 219.946 25.872 219.946 18.48C219.946 11.088 215.482 7.2 208.714 7.2C201.754 7.2 197.386 11.088 197.386 18.48C197.386 25.872 201.802 29.808 208.714 29.808ZM232.52 36V1.008H253.16C260.6 1.008 266.312 3.744 266.312 11.328C266.312 15.504 264.008 18.864 259.928 19.872V20.208C263.72 20.88 265.448 23.04 265.448 27.072V31.872C265.448 33.216 265.448 34.608 266.072 36H257.672C257.24 35.136 257.096 33.792 257.096 31.872V28.272C257.096 25.248 255.992 23.52 251.768 23.52H240.872V36H232.52ZM240.872 17.472H251.48C256.28 17.472 257.864 15.36 257.864 12.24C257.864 8.592 255.272 7.344 251.48 7.344H240.872V17.472ZM270.254 36V1.008H299.87V7.632H278.606V15.216H297.518V21.408H278.606V29.376H299.966V36H270.254Z" fill="black"/>
<path d="M15.312 36L14.3954 36.3998L14.6572 37H15.312V36ZM0.048 1.008V0.00799847H-1.47921L-0.86859 1.40783L0.048 1.008ZM9.264 1.008L10.1914 0.633805L9.93883 0.00799847H9.264V1.008ZM19.2 25.632L20.1398 25.2903L20.1339 25.2739L20.1273 25.2578L19.2 25.632ZM20.544 29.328L19.6042 29.6697L19.8436 30.328H20.544V29.328ZM20.88 29.328V30.328H21.5773L21.8183 29.6737L20.88 29.328ZM22.224 25.68L21.297 25.3049L21.2911 25.3195L21.2857 25.3343L22.224 25.68ZM32.208 1.008V0.00799847H31.5339L31.281 0.632879L32.208 1.008ZM41.424 1.008L42.3401 1.40888L42.9531 0.00799847H41.424V1.008ZM26.112 36V37H26.766L27.0281 36.4009L26.112 36ZM16.2286 35.6002L0.96459 0.608169L-0.86859 1.40783L14.3954 36.3998L16.2286 35.6002ZM0.048 2.008H9.264V0.00799847H0.048V2.008ZM8.33665 1.38219L18.2726 26.0062L20.1273 25.2578L10.1914 0.633805L8.33665 1.38219ZM18.2602 25.9737L19.6042 29.6697L21.4838 28.9863L20.1398 25.2903L18.2602 25.9737ZM20.544 30.328H20.88V28.328H20.544V30.328ZM21.8183 29.6737L23.1623 26.0257L21.2857 25.3343L19.9417 28.9823L21.8183 29.6737ZM23.151 26.0551L33.135 1.38312L31.281 0.632879L21.297 25.3049L23.151 26.0551ZM32.208 2.008H41.424V0.00799847H32.208V2.008ZM40.5079 0.607114L25.1959 35.5991L27.0281 36.4009L42.3401 1.40888L40.5079 0.607114ZM26.112 35H15.312V37H26.112V35ZM44.3164 36H43.3164V37H44.3164V36ZM44.3164 1.008V0.00799847H43.3164V1.008H44.3164ZM52.6684 1.008H53.6684V0.00799847H52.6684V1.008ZM52.6684 36V37H53.6684V36H52.6684ZM45.3164 36V1.008H43.3164V36H45.3164ZM44.3164 2.008H52.6684V0.00799847H44.3164V2.008ZM51.6684 1.008V36H53.6684V1.008H51.6684ZM52.6684 35H44.3164V37H52.6684V35ZM58.332 36H57.332V37H58.332V36ZM58.332 1.008V0.00799847H57.332V1.008H58.332ZM68.508 1.008L69.3181 0.421744L69.0187 0.00799847H68.508V1.008ZM85.98 25.152L85.1699 25.7383L85.4693 26.152H85.98V25.152ZM86.316 25.152V26.152H87.3389L87.3157 25.1294L86.316 25.152ZM86.076 14.544H85.076V14.5553L85.0763 14.5666L86.076 14.544ZM86.076 1.008V0.00799847H85.076V1.008H86.076ZM94.38 1.008H95.38V0.00799847H94.38V1.008ZM94.38 36V37H95.38V36H94.38ZM84.348 36L83.5401 36.5893L83.8397 37H84.348V36ZM66.876 12.048L67.6839 11.4587L67.3843 11.048H66.876V12.048ZM66.492 12.048V11.048H65.4634L65.4924 12.0762L66.492 12.048ZM66.78 22.272H67.78V22.2579L67.7796 22.2438L66.78 22.272ZM66.78 36V37H67.78V36H66.78ZM59.332 36V1.008H57.332V36H59.332ZM58.332 2.008H68.508V0.00799847H58.332V2.008ZM67.6979 1.59425L85.1699 25.7383L86.7901 24.5657L69.3181 0.421744L67.6979 1.59425ZM85.98 26.152H86.316V24.152H85.98V26.152ZM87.3157 25.1294L87.0757 14.5214L85.0763 14.5666L85.3163 25.1746L87.3157 25.1294ZM87.076 14.544V1.008H85.076V14.544H87.076ZM86.076 2.008H94.38V0.00799847H86.076V2.008ZM93.38 1.008V36H95.38V1.008H93.38ZM94.38 35H84.348V37H94.38V35ZM85.1559 35.4107L67.6839 11.4587L66.0681 12.6373L83.5401 36.5893L85.1559 35.4107ZM66.876 11.048H66.492V13.048H66.876V11.048ZM65.4924 12.0762L65.7804 22.3002L67.7796 22.2438L67.4916 12.0198L65.4924 12.0762ZM65.78 22.272V36H67.78V22.272H65.78ZM66.78 35H58.332V37H66.78V35ZM100.051 36H99.0508V37H100.051V36ZM100.051 1.008V0.00799847H99.0508V1.008H100.051ZM108.403 1.008H109.403V0.00799847H108.403V1.008ZM108.403 36V37H109.403V36H108.403ZM101.051 36V1.008H99.0508V36H101.051ZM100.051 2.008H108.403V0.00799847H100.051V2.008ZM107.403 1.008V36H109.403V1.008H107.403ZM108.403 35H100.051V37H108.403V35ZM122.509 24.864V23.864H121.495L121.509 24.8781L122.509 24.864ZM131.245 24.864L132.245 24.8377L132.219 23.864H131.245V24.864ZM138.493 21.648L138.616 20.6556L138.609 20.6547L138.493 21.648ZM154.621 11.136V12.136H155.703L155.618 11.0577L154.621 11.136ZM146.173 11.136L145.18 11.2495L145.281 12.136H146.173V11.136ZM140.701 14.688L140.818 13.6949L140.818 13.6948L140.701 14.688ZM139.501 35.432C133.81 35.432 129.825 34.2648 127.276 32.3974C124.768 30.5596 123.553 27.9738 123.509 24.8499L121.509 24.8781C121.561 28.5702 123.034 31.7684 126.094 34.0106C129.114 36.2232 133.577 37.432 139.501 37.432V35.432ZM122.509 25.864H131.245V23.864H122.509V25.864ZM130.245 24.8903C130.301 27.0127 131.201 28.7687 132.913 29.9573C134.578 31.114 136.92 31.672 139.789 31.672V29.672C137.138 29.672 135.256 29.15 134.054 28.3147C132.897 27.5113 132.285 26.3633 132.245 24.8377L130.245 24.8903ZM139.789 31.672C142.345 31.672 144.425 31.2545 145.9 30.3722C147.436 29.4536 148.277 28.0465 148.277 26.304H146.277C146.277 27.2975 145.846 28.0744 144.874 28.6558C143.841 29.2735 142.177 29.672 139.789 29.672V31.672ZM148.277 26.304C148.277 25.3087 148.093 24.4241 147.622 23.6742C147.147 22.9186 146.448 22.4059 145.612 22.0357C144.022 21.3311 141.645 21.0312 138.616 20.6556L138.37 22.6404C141.533 23.0327 143.548 23.3089 144.802 23.8643C145.389 24.1241 145.724 24.4124 145.929 24.7383C146.137 25.0699 146.277 25.5473 146.277 26.304H148.277ZM138.609 20.6547C133.675 20.0798 130.104 19.2434 127.777 17.7984C126.636 17.0901 125.813 16.2465 125.268 15.2241C124.721 14.1977 124.421 12.9301 124.421 11.328H122.421C122.421 13.1819 122.769 14.7883 123.503 16.1649C124.239 17.5455 125.331 18.6339 126.722 19.4976C129.458 21.1966 133.424 22.0641 138.377 22.6413L138.609 20.6547ZM124.421 11.328C124.421 8.23514 125.75 5.85572 128.203 4.20808C130.702 2.52909 134.429 1.576 139.213 1.576V-0.424002C134.206 -0.424002 130.036 0.566904 127.087 2.54792C124.092 4.56028 122.421 7.55686 122.421 11.328H124.421ZM139.213 1.576C143.648 1.576 147.149 2.51166 149.577 4.16282C151.971 5.7918 153.384 8.15619 153.624 11.2143L155.618 11.0577C155.33 7.3958 153.599 4.48019 150.702 2.50918C147.837 0.560339 143.898 -0.424002 139.213 -0.424002V1.576ZM154.621 10.136H146.173V12.136H154.621V10.136ZM147.167 11.0225C146.942 9.05631 146.004 7.5681 144.481 6.60651C143.005 5.67407 141.063 5.288 138.877 5.288V7.288C140.867 7.288 142.382 7.64593 143.413 8.29749C144.399 8.9199 145.02 9.85569 145.18 11.2495L147.167 11.0225ZM138.877 5.288C136.594 5.288 134.672 5.69854 133.286 6.54439C131.854 7.41812 131.013 8.75541 131.013 10.416H133.013C133.013 9.53258 133.42 8.80587 134.328 8.25161C135.282 7.66946 136.792 7.288 138.877 7.288V5.288ZM131.013 10.416C131.013 11.2862 131.168 12.0898 131.607 12.7851C132.049 13.4855 132.709 13.9639 133.508 14.314C135.031 14.9811 137.375 15.3036 140.584 15.6811L140.818 13.6948C137.499 13.3044 135.499 13.0029 134.31 12.482C133.753 12.2381 133.465 11.9815 133.298 11.7174C133.128 11.4481 133.013 11.0578 133.013 10.416H131.013ZM140.584 15.6811C145.681 16.2822 149.27 17.0722 151.586 18.5543C152.715 19.2767 153.53 20.1576 154.072 21.2689C154.619 22.3907 154.917 23.8057 154.917 25.632H156.917C156.917 23.5943 156.585 21.8593 155.869 20.3921C155.149 18.9144 154.067 17.7673 152.664 16.8697C149.917 15.1118 145.897 14.2938 140.818 13.6949L140.584 15.6811ZM154.917 25.632C154.917 28.6827 153.631 31.0702 151.132 32.7382C148.582 34.4401 144.701 35.432 139.501 35.432V37.432C144.909 37.432 149.236 36.4079 152.242 34.4018C155.299 32.3618 156.917 29.3493 156.917 25.632H154.917ZM168.852 36H167.852V37H168.852V36ZM168.852 7.728H169.852V6.728H168.852V7.728ZM157.236 7.728H156.236V8.728H157.236V7.728ZM157.236 1.008V0.00799847H156.236V1.008H157.236ZM188.964 1.008H189.964V0.00799847H188.964V1.008ZM188.964 7.728V8.728H189.964V7.728H188.964ZM177.156 7.728V6.728H176.156V7.728H177.156ZM177.156 36V37H178.156V36H177.156ZM169.852 36V7.728H167.852V36H169.852ZM168.852 6.728H157.236V8.728H168.852V6.728ZM158.236 7.728V1.008H156.236V7.728H158.236ZM157.236 2.008H188.964V0.00799847H157.236V2.008ZM187.964 1.008V7.728H189.964V1.008H187.964ZM188.964 6.728H177.156V8.728H188.964V6.728ZM176.156 7.728V36H178.156V7.728H176.156ZM177.156 35H168.852V37H177.156V35ZM208.714 35.432C202.66 35.432 197.968 33.7111 194.8 30.7889C191.64 27.8745 189.89 23.6694 189.89 18.48H187.89C187.89 24.1386 189.812 28.9095 193.444 32.2591C197.067 35.6009 202.287 37.432 208.714 37.432V35.432ZM189.89 18.48C189.89 13.2927 191.65 9.10007 194.816 6.19699C197.99 3.28542 202.683 1.576 208.714 1.576V-0.424002C202.312 -0.424002 197.093 1.39458 193.464 4.72301C189.825 8.05992 187.89 12.8192 187.89 18.48H189.89ZM208.714 1.576C214.694 1.576 219.35 3.28427 222.501 6.1946C225.644 9.09716 227.394 13.2906 227.394 18.48H229.394C229.394 12.8214 227.472 8.06283 223.858 4.7254C220.253 1.39573 215.069 -0.424002 208.714 -0.424002V1.576ZM227.394 18.48C227.394 23.6677 225.633 27.8743 222.482 30.7901C219.324 33.7132 214.668 35.432 208.714 35.432V37.432C215.048 37.432 220.231 35.5988 223.841 32.2579C227.459 28.9097 229.394 24.1403 229.394 18.48H227.394ZM208.714 30.808C212.311 30.808 215.396 29.7666 217.584 27.6318C219.777 25.4927 220.946 22.3771 220.946 18.48H218.946C218.946 21.9749 217.907 24.5233 216.187 26.2002C214.464 27.8814 211.933 28.808 208.714 28.808V30.808ZM220.946 18.48C220.946 14.5797 219.763 11.4752 217.563 9.3489C215.368 7.22831 212.285 6.2 208.714 6.2V8.2C211.91 8.2 214.443 9.11569 216.173 10.7871C217.897 12.4528 218.946 14.9883 218.946 18.48H220.946ZM208.714 6.2C205.053 6.2 201.943 7.22476 199.745 9.3489C197.541 11.4786 196.386 14.5857 196.386 18.48H198.386C198.386 14.9823 199.414 12.4494 201.135 10.7871C202.861 9.11924 205.415 8.2 208.714 8.2V6.2ZM196.386 18.48C196.386 22.3771 197.555 25.4942 199.762 27.634C201.963 29.7686 205.072 30.808 208.714 30.808V28.808C205.443 28.808 202.888 27.8794 201.154 26.198C199.425 24.5218 198.386 21.9748 198.386 18.48H196.386ZM232.52 36H231.52V37H232.52V36ZM232.52 1.008V0.00799847H231.52V1.008H232.52ZM259.927 19.872L259.688 18.9012L258.927 19.089V19.872H259.927ZM259.927 20.208H258.927V21.0464L259.753 21.1927L259.927 20.208ZM266.072 36V37H267.616L266.984 35.5909L266.072 36ZM257.672 36L256.777 36.4472L257.053 37H257.672V36ZM240.872 23.52V22.52H239.872V23.52H240.872ZM240.872 36V37H241.872V36H240.872ZM240.872 17.472H239.872V18.472H240.872V17.472ZM240.872 7.344V6.344H239.872V7.344H240.872ZM233.52 36V1.008H231.52V36H233.52ZM232.52 2.008H253.16V0.00799847H232.52V2.008ZM253.16 2.008C256.785 2.008 259.837 2.67932 261.956 4.14627C264.014 5.57062 265.311 7.82573 265.311 11.328H267.311C267.311 7.24627 265.753 4.34137 263.095 2.50173C260.498 0.704678 256.974 0.00799847 253.16 0.00799847V2.008ZM265.311 11.328C265.311 15.1026 263.267 18.0169 259.688 18.9012L260.167 20.8428C264.748 19.7111 267.311 15.9054 267.311 11.328H265.311ZM258.927 19.872V20.208H260.927V19.872H258.927ZM259.753 21.1927C261.496 21.5016 262.622 22.1255 263.33 23.0062C264.043 23.8944 264.448 25.1885 264.448 27.072H266.448C266.448 24.9235 265.988 23.1216 264.889 21.7538C263.785 20.3785 262.151 19.5864 260.102 19.2233L259.753 21.1927ZM264.448 27.072V31.872H266.448V27.072H264.448ZM264.448 31.872C264.448 33.1927 264.435 34.7945 265.159 36.4091L266.984 35.5909C266.46 34.4215 266.448 33.2393 266.448 31.872H264.448ZM266.072 35H257.672V37H266.072V35ZM258.566 35.5528C258.252 34.9247 258.095 33.8045 258.095 31.872H256.095C256.095 33.7795 256.227 35.3473 256.777 36.4472L258.566 35.5528ZM258.095 31.872V28.272H256.095V31.872H258.095ZM258.095 28.272C258.095 26.6752 257.812 25.1521 256.725 24.0575C255.642 22.966 253.979 22.52 251.768 22.52V24.52C253.78 24.52 254.781 24.938 255.306 25.4665C255.827 25.9919 256.095 26.8447 256.095 28.272H258.095ZM251.768 22.52H240.872V24.52H251.768V22.52ZM239.872 23.52V36H241.872V23.52H239.872ZM240.872 35H232.52V37H240.872V35ZM240.872 18.472H251.48V16.472H240.872V18.472ZM251.48 18.472C254.002 18.472 255.892 17.92 257.149 16.7613C258.424 15.586 258.863 13.9601 258.863 12.24H256.863C256.863 13.6399 256.511 14.63 255.794 15.2907C255.059 15.968 253.757 16.472 251.48 16.472V18.472ZM258.863 12.24C258.863 10.1452 258.098 8.58435 256.658 7.5988C255.29 6.6623 253.452 6.344 251.48 6.344V8.344C253.299 8.344 254.653 8.6497 255.529 9.2492C256.333 9.79965 256.863 10.6868 256.863 12.24H258.863ZM251.48 6.344H240.872V8.344H251.48V6.344ZM239.872 7.344V17.472H241.872V7.344H239.872ZM270.254 36H269.254V37H270.254V36ZM270.254 1.008V0.00799847H269.254V1.008H270.254ZM299.87 1.008H300.87V0.00799847H299.87V1.008ZM299.87 7.632V8.632H300.87V7.632H299.87ZM278.606 7.632V6.632H277.606V7.632H278.606ZM278.606 15.216H277.606V16.216H278.606V15.216ZM297.518 15.216H298.518V14.216H297.518V15.216ZM297.518 21.408V22.408H298.518V21.408H297.518ZM278.606 21.408V20.408H277.606V21.408H278.606ZM278.606 29.376H277.606V30.376H278.606V29.376ZM299.966 29.376H300.966V28.376H299.966V29.376ZM299.966 36V37H300.966V36H299.966ZM271.254 36V1.008H269.254V36H271.254ZM270.254 2.008H299.87V0.00799847H270.254V2.008ZM298.87 1.008V7.632H300.87V1.008H298.87ZM299.87 6.632H278.606V8.632H299.87V6.632ZM277.606 7.632V15.216H279.606V7.632H277.606ZM278.606 16.216H297.518V14.216H278.606V16.216ZM296.518 15.216V21.408H298.518V15.216H296.518ZM297.518 20.408H278.606V22.408H297.518V20.408ZM277.606 21.408V29.376H279.606V21.408H277.606ZM278.606 30.376H299.966V28.376H278.606V30.376ZM298.966 29.376V36H300.966V29.376H298.966ZM299.966 35H270.254V37H299.966V35Z" fill="black" mask="url(#path-1-outside-1_27_17)"/>
</svg>
