<svg width="54" height="27" viewBox="0 0 54 27" fill="none" xmlns="http://www.w3.org/2000/svg">
<path d="M10.846 26L0.034 1.214H6.562L13.6 18.656L14.552 21.274H14.79L15.742 18.69L22.814 1.214H29.342L18.496 26H10.846ZM42.0028 26.306C39.2601 26.306 37.0048 25.966 35.2368 25.286C33.4688 24.5833 32.1541 23.62 31.2928 22.396C30.4314 21.1493 29.9894 19.7213 29.9668 18.112H36.1548C36.2001 19.404 36.7328 20.4127 37.7528 21.138C38.7728 21.8633 40.2574 22.226 42.2068 22.226C43.9521 22.226 45.2668 21.954 46.1508 21.41C47.0574 20.866 47.5108 20.1067 47.5108 19.132C47.5108 18.2933 47.2954 17.6813 46.8648 17.296C46.4341 16.888 45.7654 16.5933 44.8588 16.412C43.9521 16.208 42.7621 16.0153 41.2888 15.834C38.9541 15.562 36.9934 15.1653 35.4068 14.644C33.8201 14.1227 32.6188 13.386 31.8028 12.434C31.0094 11.4593 30.6128 10.156 30.6128 8.524C30.6128 6.09867 31.6101 4.22867 33.6048 2.914C35.5994 1.57667 38.3308 0.907999 41.7988 0.907999C45.0401 0.907999 47.6241 1.56533 49.5508 2.88C51.4774 4.172 52.5314 6.008 52.7128 8.388H46.7288C46.5928 7.18667 46.0601 6.314 45.1308 5.77C44.2241 5.226 43.0341 4.954 41.5608 4.954C40.0194 4.954 38.8181 5.21467 37.9567 5.736C37.1181 6.25733 36.6988 6.97133 36.6988 7.878C36.6988 8.58067 36.8914 9.12467 37.2768 9.51C37.6621 9.87267 38.2968 10.156 39.1808 10.36C40.0874 10.5413 41.3114 10.7227 42.8528 10.904C45.2554 11.176 47.2501 11.5727 48.8368 12.094C50.4461 12.5927 51.6474 13.352 52.4408 14.372C53.2341 15.392 53.6308 16.82 53.6308 18.656C53.6308 21.0587 52.6334 22.94 50.6388 24.3C48.6441 25.6373 45.7654 26.306 42.0028 26.306Z" fill="black"/>
</svg>
